<?xml version="1.0" encoding="UTF-8" standalone="no"?>
<!DOCTYPE svg PUBLIC "-//W3C//DTD SVG 1.1//EN" "http://www.w3.org/Graphics/SVG/1.1/DTD/svg11.dtd">
<svg version="1.1" xmlns="http://www.w3.org/2000/svg" xmlns:xlink="http://www.w3.org/1999/xlink" preserveAspectRatio="xMidYMid meet" viewBox="0 0 640 640" width="640" height="640"><defs><path d="M313.14 568.05C170.34 568.05 54.4 452.11 54.4 309.31C54.4 166.51 170.34 50.57 313.14 50.57C455.95 50.57 571.89 166.51 571.89 309.31C571.89 452.11 455.95 568.05 313.14 568.05Z" id="cc3348zbS"></path><path d="M336.24 198.69L336.24 241.15L286 241.15L286 198.69L336.24 198.69Z" id="aUaxU6AJX"></path><path d="M332.68 138.6L332.69 138.44L332.71 138.29L332.73 138.14L332.76 137.99L332.79 137.85L332.83 137.7L332.87 137.56L332.92 137.42L332.98 137.28L333.04 137.15L333.1 137.02L333.17 136.89L333.25 136.77L333.32 136.64L333.41 136.53L333.5 136.41L333.59 136.3L333.68 136.19L333.78 136.09L333.89 135.99L334 135.89L334.11 135.8L334.22 135.71L334.34 135.63L334.46 135.55L334.59 135.47L334.72 135.4L334.85 135.34L334.98 135.28L335.12 135.22L335.26 135.17L335.4 135.13L335.54 135.09L335.69 135.06L335.84 135.03L335.99 135.01L336.14 135L336.29 134.99L336.45 134.98L351.52 134.98L351.67 134.99L351.83 135L351.98 135.01L352.13 135.03L352.28 135.06L352.42 135.09L352.57 135.13L352.71 135.17L352.85 135.22L352.99 135.28L353.12 135.34L353.25 135.4L353.38 135.47L353.5 135.55L353.63 135.63L353.74 135.71L353.86 135.8L353.97 135.89L354.08 135.99L354.18 136.09L354.28 136.19L354.38 136.3L354.47 136.41L354.56 136.53L354.64 136.64L354.72 136.77L354.8 136.89L354.87 137.02L354.93 137.15L354.99 137.28L355.05 137.42L355.1 137.56L355.14 137.7L355.18 137.85L355.21 137.99L355.24 138.14L355.26 138.29L355.27 138.44L355.28 138.6L355.29 138.75L355.29 178.31L370.36 195.27L355.29 195.27L355.29 248.01L321.74 248.01L321.74 248.01L321.74 247.84L321.74 211.24L321.74 211.08L321.73 210.91L321.71 210.75L321.69 210.58L321.66 210.42L321.63 210.27L321.59 210.11L321.54 209.96L321.49 209.81L321.44 209.66L321.37 209.52L321.31 209.38L321.24 209.24L321.16 209.1L321.08 208.97L320.99 208.84L320.9 208.72L320.81 208.6L320.71 208.48L320.6 208.37L320.5 208.26L320.38 208.16L320.27 208.06L320.15 207.96L320.03 207.87L319.9 207.79L319.77 207.71L319.64 207.63L319.5 207.56L319.37 207.5L319.23 207.44L319.08 207.38L318.94 207.34L318.79 207.3L318.64 207.26L318.48 207.23L318.33 207.21L318.17 207.19L318.01 207.18L317.85 207.18L302.3 207.18L302.14 207.18L301.98 207.19L301.82 207.21L301.67 207.23L301.51 207.26L301.36 207.3L301.21 207.34L301.07 207.38L300.92 207.44L300.78 207.5L300.64 207.56L300.51 207.63L300.38 207.71L300.25 207.79L300.12 207.87L300 207.96L299.88 208.06L299.77 208.16L299.65 208.26L299.55 208.37L299.44 208.48L299.34 208.6L299.25 208.72L299.16 208.84L299.07 208.97L298.99 209.1L298.91 209.24L298.84 209.38L298.77 209.52L298.71 209.66L298.66 209.81L298.61 209.96L298.56 210.11L298.52 210.27L298.49 210.42L298.46 210.58L298.44 210.75L298.42 210.91L298.41 211.08L298.41 211.24L298.41 247.84L298.41 248.01L298.41 248.01L264.86 248.01L264.86 195.27L249.79 195.27L310.07 127.45L332.68 152.88L332.68 138.75L332.68 138.6Z" id="b3m1LGeT6H"></path><path d="M310.66 433.34C255.47 433.34 210.66 388.53 210.66 333.34C210.66 278.15 255.47 233.34 310.66 233.34C365.85 233.34 410.66 278.15 410.66 333.34C410.66 388.53 365.85 433.34 310.66 433.34Z" id="a2QDk6uCLe"></path><path d="M310.66 422.16C262.37 422.16 223.16 382.96 223.16 334.66C223.16 286.37 262.37 247.16 310.66 247.16C358.96 247.16 398.16 286.37 398.16 334.66C398.16 382.96 358.96 422.16 310.66 422.16Z" id="g13oh43W6w"></path><path d="M310.66 409.66C269.27 409.66 235.66 376.06 235.66 334.66C235.66 293.27 269.27 259.66 310.66 259.66C352.06 259.66 385.66 293.27 385.66 334.66C385.66 376.06 352.06 409.66 310.66 409.66Z" id="djm16j6U"></path><path d="M312.35 397.16C277.85 397.16 249.85 369.16 249.85 334.66C249.85 300.17 277.85 272.16 312.35 272.16C346.84 272.16 374.85 300.17 374.85 334.66C374.85 369.16 346.84 397.16 312.35 397.16Z" id="bAsaeJvWd"></path><path d="M312.35 384.66C284.75 384.66 262.35 362.26 262.35 334.66C262.35 307.07 284.75 284.66 312.35 284.66C339.94 284.66 362.35 307.07 362.35 334.66C362.35 362.26 339.94 384.66 312.35 384.66Z" id="b2kub5oBD0"></path><path d="M312.35 372.16C291.65 372.16 274.85 355.36 274.85 334.66C274.85 313.97 291.65 297.16 312.35 297.16C333.04 297.16 349.85 313.97 349.85 334.66C349.85 355.36 333.04 372.16 312.35 372.16Z" id="a1Exev2orq"></path><path d="M312.35 359.66C298.55 359.66 287.35 348.46 287.35 334.66C287.35 320.87 298.55 309.66 312.35 309.66C326.15 309.66 337.35 320.87 337.35 334.66C337.35 348.46 326.15 359.66 312.35 359.66Z" id="duJjtvLQ8"></path><path d="M321.94 366.42C321.94 367.61 321.91 368.79 321.83 369.96C343.62 374.74 359.63 390.78 359.63 409.82C359.63 409.82 359.63 409.82 359.63 409.82C359.63 432.64 336.64 451.14 308.27 451.14C295.39 451.14 192.32 451.14 179.43 451.14C151.07 451.14 128.07 432.64 128.07 409.82C128.07 409.82 128.07 409.82 128.07 409.82C128.07 389.92 145.55 373.31 168.82 369.39C170.91 347.82 188.36 330.98 209.57 330.98C214.23 330.98 218.71 331.8 222.88 333.29C232.8 318.85 249.01 309.43 267.34 309.43C297.49 309.43 321.94 334.95 321.94 366.42Z" id="b2NJdCTh0v"></path><path d="M460.53 366.14C460.53 367.33 460.49 368.51 460.42 369.67C482.2 374.46 498.21 390.49 498.21 409.53C498.21 409.53 498.21 409.53 498.21 409.53C498.21 432.35 475.22 450.85 446.85 450.85C433.97 450.85 330.9 450.85 318.02 450.85C289.65 450.85 266.65 432.35 266.65 409.53C266.65 409.53 266.65 409.53 266.65 409.53C266.65 389.64 284.13 373.03 307.41 369.1C309.49 347.53 326.94 330.7 348.15 330.7C352.82 330.7 357.29 331.51 361.47 333.01C371.38 318.56 387.59 309.15 405.92 309.15C436.07 309.15 460.53 334.66 460.53 366.14Z" id="hnKJw29hA"></path><path d="M386.16 369.81C386.16 370.95 386.13 372.07 386.05 373.19C407.84 377.77 423.85 393.12 423.85 411.35C423.85 411.35 423.85 411.35 423.85 411.35C423.85 433.21 400.86 450.92 372.49 450.92C359.61 450.92 256.54 450.92 243.65 450.92C215.29 450.92 192.29 433.21 192.29 411.35C192.29 411.35 192.29 411.35 192.29 411.35C192.29 392.31 209.77 376.4 233.04 372.64C235.13 351.99 252.58 335.87 273.79 335.87C278.45 335.87 282.93 336.65 287.1 338.08C297.02 324.25 313.23 315.23 331.56 315.23C361.71 315.23 386.16 339.66 386.16 369.81Z" id="b3DaVXkRoK"></path></defs><g><g><g><use xlink:href="#cc3348zbS" opacity="1" fill="#22d1ee" fill-opacity="1"></use><g><use xlink:href="#cc3348zbS" opacity="1" fill-opacity="0" stroke="#000000" stroke-width="1" stroke-opacity="0"></use></g></g><g><use xlink:href="#aUaxU6AJX" opacity="1" fill="#d8983c" fill-opacity="1"></use><g><use xlink:href="#aUaxU6AJX" opacity="1" fill-opacity="0" stroke="#000000" stroke-width="1" stroke-opacity="0"></use></g></g><g><use xlink:href="#b3m1LGeT6H" opacity="1" fill="#d8983c" fill-opacity="1"></use><g><use xlink:href="#b3m1LGeT6H" opacity="1" fill-opacity="0" stroke="#000000" stroke-width="1" stroke-opacity="0"></use></g></g><g><use xlink:href="#a2QDk6uCLe" opacity="1" fill="#ff5555" fill-opacity="1"></use><g><use xlink:href="#a2QDk6uCLe" opacity="1" fill-opacity="0" stroke="#000000" stroke-width="1" stroke-opacity="0"></use></g></g><g><use xlink:href="#g13oh43W6w" opacity="1" fill="#ffbb3f" fill-opacity="1"></use><g><use xlink:href="#g13oh43W6w" opacity="1" fill-opacity="0" stroke="#000000" stroke-width="1" stroke-opacity="0"></use></g></g><g><use xlink:href="#djm16j6U" opacity="1" fill="#fee855" fill-opacity="1"></use><g><use xlink:href="#djm16j6U" opacity="1" fill-opacity="0" stroke="#000000" stroke-width="1" stroke-opacity="0"></use></g></g><g><use xlink:href="#bAsaeJvWd" opacity="1" fill="#95fb73" fill-opacity="1"></use><g><use xlink:href="#bAsaeJvWd" opacity="1" fill-opacity="0" stroke="#000000" stroke-width="1" stroke-opacity="0"></use></g></g><g><use xlink:href="#b2kub5oBD0" opacity="1" fill="#73c3fb" fill-opacity="1"></use><g><use xlink:href="#b2kub5oBD0" opacity="1" fill-opacity="0" stroke="#000000" stroke-width="1" stroke-opacity="0"></use></g></g><g><use xlink:href="#a1Exev2orq" opacity="1" fill="#9273fb" fill-opacity="1"></use><g><use xlink:href="#a1Exev2orq" opacity="1" fill-opacity="0" stroke="#000000" stroke-width="1" stroke-opacity="0"></use></g></g><g><use xlink:href="#duJjtvLQ8" opacity="1" fill="#d073fb" fill-opacity="1"></use><g><use xlink:href="#duJjtvLQ8" opacity="1" fill-opacity="0" stroke="#000000" stroke-width="1" stroke-opacity="0"></use></g></g><g><use xlink:href="#b2NJdCTh0v" opacity="1" fill="#fffafa" fill-opacity="1"></use><g><use xlink:href="#b2NJdCTh0v" opacity="1" fill-opacity="0" stroke="#000000" stroke-width="1" stroke-opacity="0"></use></g></g><g><use xlink:href="#hnKJw29hA" opacity="1" fill="#ffffff" fill-opacity="1"></use><g><use xlink:href="#hnKJw29hA" opacity="1" fill-opacity="0" stroke="#000000" stroke-width="1" stroke-opacity="0"></use></g></g><g><use xlink:href="#b3DaVXkRoK" opacity="1" fill="#fffafa" fill-opacity="1"></use><g><use xlink:href="#b3DaVXkRoK" opacity="1" fill-opacity="0" stroke="#000000" stroke-width="1" stroke-opacity="0"></use></g></g></g></g></svg>